<svg width="16" height="16" viewBox="0 0 16 16" fill="none" xmlns="http://www.w3.org/2000/svg">
<path d="M8 0C3.582 0 0 3.582 0 8C0 12.418 3.582 16 8 16C12.418 16 16 12.418 16 8C16 3.582 12.418 0 8 0ZM8 1.2C11.75 1.2 14.8 4.25 14.8 8C14.8 11.75 11.75 14.8 8 14.8C4.25 14.8 1.2 11.75 1.2 8C1.2 4.25 4.25 1.2 8 1.2ZM6.8932 11C7.0462 11 7.2002 10.941 7.3172 10.824L12.1172 6.024C12.3512 5.79 12.3512 5.41 12.1172 5.176C11.8832 4.941 11.5032 4.941 11.2682 5.176L6.8932 9.551L4.7312 7.39C4.4972 7.155 4.1172 7.155 3.8822 7.39C3.6482 7.624 3.6482 8.004 3.8822 8.238L6.4692 10.824C6.5862 10.941 6.7402 11 6.8932 11Z" fill="black"/>
</svg>
