<svg width="24" height="24" viewBox="0 0 24 24" fill="none" xmlns="http://www.w3.org/2000/svg">
<path d="M3.05053 10.2057H3.5798C3.60653 5.67188 7.36488 2 12 2C16.6325 2 20.3908 5.67188 20.4175 10.2057H20.9468C21.5269 10.2057 22 10.6641 22 11.2318V15.8464C22 16.4141 21.5295 16.8724 20.9468 16.8724H19.5541C18.3406 19.2917 15.9508 21.0417 13.1174 21.4115C12.7324 21.7682 12.1417 22 11.4734 22C10.3106 22 9.36702 21.3125 9.36702 20.4609C9.36702 19.6094 10.3106 18.9219 11.4734 18.9219C12.3154 18.9219 13.0372 19.2865 13.374 19.8073C15.2184 19.4375 16.8329 18.3307 17.8246 16.7448C17.4905 16.5729 17.2633 16.237 17.2633 15.8438V11.2318C17.2633 10.6641 17.7338 10.2057 18.3165 10.2057H18.8404C18.8137 6.52604 15.7557 3.54167 12 3.54167C8.24433 3.54167 5.18632 6.52604 5.15959 10.2057H5.68352C6.26357 10.2057 6.73671 10.6641 6.73671 11.2318V15.8464C6.73671 16.4141 6.26625 16.8724 5.68352 16.8724H3.05321C2.47047 16.8724 2 16.4141 2 15.8464V11.2318C1.99734 10.6667 2.4678 10.2057 3.05053 10.2057Z" fill="black"/>
</svg>
